<svg xmlns="http://www.w3.org/2000/svg" version="1.1" xmlns:xlink="http://www.w3.org/1999/xlink" xmlns:svgjs="http://svgjs.dev/svgjs" width="45" height="45"><svg width="45" height="45" viewBox="0 0 45 45" fill="none" xmlns="http://www.w3.org/2000/svg">
<g clip-path="url(#clip0_5_45)">
<path fill-rule="evenodd" clip-rule="evenodd" d="M45 22.5C45 34.9264 34.9264 45 22.5 45C10.0736 45 0 34.9264 0 22.5C0 10.0736 10.0736 0 22.5 0C34.9264 0 45 10.0736 45 22.5ZM13.8182 40.472V38C13.8182 37.3473 14.3473 36.8182 15 36.8182H16.9091C17.4112 36.8182 17.8182 36.4112 17.8182 35.9091V28.6364C17.8182 27.9837 18.3473 27.4545 19 27.4545H23.6364C24.2891 27.4545 24.8182 27.9837 24.8182 28.6364V29.4545C24.8182 29.9566 25.2252 30.3636 25.7273 30.3636H26.0909C26.593 30.3636 27 29.9566 27 29.4545V28.2727C27 27.62 27.5291 27.0909 28.1818 27.0909H29C29.6527 27.0909 30.1818 27.62 30.1818 28.2727V33.9091C30.1818 34.5618 29.6527 35.0909 29 35.0909C28.5481 35.0909 28.1818 35.4572 28.1818 35.9091V36.6364C28.1818 37.2891 27.6527 37.8182 27 37.8182H25.7273C25.2252 37.8182 24.8182 38.2252 24.8182 38.7273V39.1818C24.8182 39.6839 25.2252 40.0909 25.7273 40.0909H28.1818C28.8245 40.0909 29.3474 40.604 29.3633 41.2429C34.8019 39.2508 39.1317 34.9591 41.1751 29.5455H38.0909C37.4382 29.5455 36.9091 29.0163 36.9091 28.3636C36.9091 27.8616 36.5021 27.4545 36 27.4545H35C34.3473 27.4545 33.8182 26.9254 33.8182 26.2727V25.6364C33.8182 25.1343 33.4112 24.7273 32.9091 24.7273H29.3636C28.7109 24.7273 28.1818 24.1982 28.1818 23.5455V21.7273C28.1818 21.2252 27.7748 20.8182 27.2727 20.8182H23C22.4979 20.8182 22.0909 21.2252 22.0909 21.7273C22.0909 22.38 21.5618 22.9091 20.9091 22.9091H19C18.3473 22.9091 17.8182 22.38 17.8182 21.7273V19.8182C17.8182 19.8109 17.8182 19.8036 17.8184 19.7964C17.8192 19.7503 17.8192 19.7042 17.8184 19.6582C17.8182 19.6509 17.8182 19.6437 17.8182 19.6364V17.7273C17.8182 17.0746 18.3473 16.5455 19 16.5455H20.4545C20.9566 16.5455 21.3636 16.1384 21.3636 15.6364C21.3636 14.9837 21.8928 14.4545 22.5455 14.4545H24.4545C25.1072 14.4545 25.6364 14.9837 25.6364 15.6364C25.6364 16.1384 26.0434 16.5455 26.5455 16.5455H27.2727C27.7748 16.5455 28.1818 16.1384 28.1818 15.6364V15C28.1818 14.3473 28.7109 13.8182 29.3636 13.8182H34.1818C34.6839 13.8182 35.0909 13.4112 35.0909 12.9091V12.3636C35.0909 11.8616 34.6839 11.4545 34.1818 11.4545H26.8182C26.1655 11.4545 25.6364 10.9254 25.6364 10.2727V5.90909C25.6364 5.25639 26.1655 4.72727 26.8182 4.72727H31.582C28.8578 3.3324 25.7708 2.54545 22.5 2.54545C19.1392 2.54545 15.9724 3.37632 13.1938 4.84386C13.3016 5.02208 13.3636 5.23107 13.3636 5.45455C13.3636 5.75579 13.6078 6 13.9091 6H14.1818C14.8345 6 15.3636 6.52912 15.3636 7.18182V10.2727C15.3636 10.9254 14.8345 11.4545 14.1818 11.4545H13.4545C12.9525 11.4545 12.5455 11.8616 12.5455 12.3636V12.6364C12.5455 13.2891 12.0163 13.8182 11.3636 13.8182C10.8616 13.8182 10.4545 14.2252 10.4545 14.7273V15C10.4545 15.6527 9.92543 16.1818 9.27273 16.1818H8.27273C7.77065 16.1818 7.36364 16.5888 7.36364 17.0909V18.1818C7.36364 18.6839 7.77065 19.0909 8.27273 19.0909H9.27273C9.92543 19.0909 10.4545 19.62 10.4545 20.2727V26.5455C10.4545 27.1982 9.92543 27.7273 9.27273 27.7273H9C8.49792 27.7273 8.09091 28.1343 8.09091 28.6364V29.4545C8.09091 29.9566 8.49792 30.3636 9 30.3636H9.81818C10.4709 30.3636 11 30.8928 11 31.5455V35.6364C11 36.2891 10.4709 36.8182 9.81818 36.8182H9.63636C8.98366 36.8182 8.45455 36.2891 8.45455 35.6364C8.45455 35.3351 8.21034 35.0909 7.90909 35.0909H7.01846C8.8547 37.346 11.1738 39.1922 13.8182 40.472Z" fill="#06B6D4"></path>
</g>
<defs>
<clipPath id="SvgjsClipPath1001">
<rect width="45" height="45" fill="white"></rect>
</clipPath>
</defs>
</svg><style>@media (prefers-color-scheme: light) { :root { filter: none; } }
@media (prefers-color-scheme: dark) { :root { filter: none; } }
</style></svg>