<svg width="35" height="35" viewBox="0 0 35 35" fill="none" xmlns="http://www.w3.org/2000/svg">
<g clip-path="url(#clip0_5_45)">
<path fill-rule="evenodd" clip-rule="evenodd" d="M35 17.5C35 27.165 27.165 35 17.5 35C7.83502 35 0 27.165 0 17.5C0 7.83502 7.83502 0 17.5 0C27.165 0 35 7.83502 35 17.5ZM10.7475 31.4782V29.5556C10.7475 29.0479 11.159 28.6364 11.6667 28.6364H13.1515C13.542 28.6364 13.8586 28.3198 13.8586 27.9293V22.2727C13.8586 21.7651 14.2701 21.3535 14.7778 21.3535H18.3838C18.8915 21.3535 19.303 21.7651 19.303 22.2727V22.9091C19.303 23.2996 19.6196 23.6162 20.0101 23.6162H20.2929C20.6834 23.6162 21 23.2996 21 22.9091V21.9899C21 21.4822 21.4115 21.0707 21.9192 21.0707H22.5556C23.0632 21.0707 23.4747 21.4822 23.4747 21.9899V26.3737C23.4747 26.8814 23.0632 27.2929 22.5556 27.2929C22.2041 27.2929 21.9192 27.5778 21.9192 27.9293V28.4949C21.9192 29.0026 21.5077 29.4141 21 29.4141H20.0101C19.6196 29.4141 19.303 29.7307 19.303 30.1212V30.4747C19.303 30.8652 19.6196 31.1818 20.0101 31.1818H21.9192C22.4191 31.1818 22.8258 31.5809 22.8381 32.0778C27.0681 30.5284 30.4358 27.1904 32.0251 22.9798H29.6263C29.1186 22.9798 28.7071 22.5683 28.7071 22.0606C28.7071 21.6701 28.3905 21.3535 28 21.3535H27.2222C26.7146 21.3535 26.303 20.942 26.303 20.4343V19.9394C26.303 19.5489 25.9865 19.2323 25.596 19.2323H22.8384C22.3307 19.2323 21.9192 18.8208 21.9192 18.3131V16.899C21.9192 16.5085 21.6026 16.1919 21.2121 16.1919H17.8889C17.4984 16.1919 17.1818 16.5085 17.1818 16.899C17.1818 17.4066 16.7703 17.8182 16.2626 17.8182H14.7778C14.2701 17.8182 13.8586 17.4066 13.8586 16.899V15.4141C13.8586 15.4085 13.8586 15.4028 13.8587 15.3972C13.8594 15.3614 13.8594 15.3255 13.8587 15.2897C13.8586 15.2841 13.8586 15.2784 13.8586 15.2727V13.7879C13.8586 13.2802 14.2701 12.8687 14.7778 12.8687H15.9091C16.2996 12.8687 16.6162 12.5521 16.6162 12.1616C16.6162 11.654 17.0277 11.2424 17.5354 11.2424H19.0202C19.5279 11.2424 19.9394 11.654 19.9394 12.1616C19.9394 12.5521 20.256 12.8687 20.6465 12.8687H21.2121C21.6026 12.8687 21.9192 12.5521 21.9192 12.1616V11.6667C21.9192 11.159 22.3307 10.7475 22.8384 10.7475H26.5859C26.9764 10.7475 27.2929 10.4309 27.2929 10.0404V9.61616C27.2929 9.22566 26.9764 8.90909 26.5859 8.90909H20.8586C20.3509 8.90909 19.9394 8.49755 19.9394 7.9899V4.59596C19.9394 4.0883 20.3509 3.67677 20.8586 3.67677H24.5638C22.445 2.59186 20.044 1.9798 17.5 1.9798C14.886 1.9798 12.4229 2.62603 10.2619 3.76745C10.3457 3.90606 10.3939 4.06861 10.3939 4.24242C10.3939 4.47673 10.5839 4.66667 10.8182 4.66667H11.0303C11.538 4.66667 11.9495 5.0782 11.9495 5.58586V7.9899C11.9495 8.49755 11.538 8.90909 11.0303 8.90909H10.4646C10.0741 8.90909 9.75758 9.22566 9.75758 9.61616V9.82828C9.75758 10.3359 9.34604 10.7475 8.83838 10.7475C8.44788 10.7475 8.13131 11.064 8.13131 11.4545V11.6667C8.13131 12.1743 7.71978 12.5859 7.21212 12.5859H6.43434C6.04384 12.5859 5.72727 12.9024 5.72727 13.2929V14.1414C5.72727 14.5319 6.04384 14.8485 6.43434 14.8485H7.21212C7.71978 14.8485 8.13131 15.26 8.13131 15.7677V20.6465C8.13131 21.1541 7.71978 21.5657 7.21212 21.5657H7C6.6095 21.5657 6.29293 21.8822 6.29293 22.2727V22.9091C6.29293 23.2996 6.6095 23.6162 7 23.6162H7.63636C8.14402 23.6162 8.55556 24.0277 8.55556 24.5354V27.7172C8.55556 28.2248 8.14402 28.6364 7.63636 28.6364H7.49495C6.98729 28.6364 6.57576 28.2248 6.57576 27.7172C6.57576 27.4829 6.38582 27.2929 6.15151 27.2929H5.4588C6.88699 29.0469 8.69074 30.4828 10.7475 31.4782Z" fill="#06B6D4"/>
</g>
<defs>
<clipPath id="clip0_5_45">
<rect width="35" height="35" fill="white"/>
</clipPath>
</defs>
</svg>
